<svg width="0" height="0" class="hidden">
  <symbol fill="none" xmlns="http://www.w3.org/2000/svg" viewBox="0 0 53 36" id="logo">
    <path d="M39.847 31.297c.191 1.377-.33 2.692-1.273 3.516a3.487 3.487 0 0 1-2.551.865c-.013 0-.026 0-.039-.003a3.844 3.844 0 0 1-2.503-1.184c-1.047-1.113-1.017-2.496-1.004-2.785 0-.139.006-.274.022-.409H21.121c.016.135.022.27.022.41.013.288.043 1.67-1.004 2.784a3.844 3.844 0 0 1-2.503 1.184c-.013.003-.026.003-.039.003a3.533 3.533 0 0 1-1.984-.458 3.582 3.582 0 0 1-.567-.406l-.002-.001c-.942-.826-1.463-2.14-1.271-3.516h-4.1l.084-.304 1.53-5.633.334-.015 3.916-.174a.316.316 0 1 0-.029-.63l-3.713.165-.333.015.556-2.052.323.027 3.145.26h.027a.316.316 0 0 0 .317-.288.316.316 0 0 0-.29-.341l-3.03-.251-.323-.027.564-2.078.3.116 2.983 1.141a.318.318 0 0 0 .411-.18.315.315 0 0 0-.182-.409l-3.045-1.166-.3-.114 4.96-18.25 3.577 10.91c.842-.423 2.804-1.29 5.344-1.25h.022c2.54-.04 4.502.827 5.343 1.25l3.578-10.91 4.96 18.25-.3.114-3.046 1.166a.316.316 0 1 0 .23.589l2.983-1.141.3-.116.564 2.078-.324.027-3.029.25a.318.318 0 0 0-.292.342.319.319 0 0 0 .318.288h.027l3.145-.26.324-.027.556 2.052-.333-.015-3.715-.165a.316.316 0 1 0-.028.63l3.917.174.334.015 1.53 5.633.083.304h-4.099Z" fill="#F4E041"></path>
    <path d="m44.36 31.613-.082-.303-.087-.317-1.526-5.618-.332-.015-.334-.015 1.531 5.637h-4.05l.05.358a3.66 3.66 0 0 1-.825 2.893 3.22 3.22 0 0 1-.545.507 2.596 2.596 0 0 1-.298.196 3.182 3.182 0 0 1-1.839.426 3.498 3.498 0 0 1-2.31-1.087c-.889-.946-.938-2.102-.918-2.569 0-.137.007-.259.02-.372l.041-.352H20.762l.041.352c.013.113.021.235.021.385.02.454-.03 1.61-.92 2.555a3.499 3.499 0 0 1-2.307 1.088 3.184 3.184 0 0 1-1.837-.425h-.002a2.642 2.642 0 0 1-.3-.197 3.225 3.225 0 0 1-.545-.507 3.66 3.66 0 0 1-.825-2.893l.05-.358H10.09l1.531-5.637-.335.015-.333.015-1.526 5.618-.086.317-.083.303h4.162c-.105 1.855.972 3.572 2.662 4.169 1.47.52 3.195.088 4.29-1.077 1.053-1.12 1.112-2.481 1.09-2.999l-.002-.093h10.698v.079c-.024.532.035 1.892 1.089 3.013A4.151 4.151 0 0 0 36.25 36c.436 0 .87-.071 1.286-.218 1.69-.597 2.767-2.314 2.662-4.169h4.162Zm-32.342-8.944-.324-.027-.567 2.093.335-.014.333-.016.546-2.01-.323-.026ZM35.771 0l-.333 1.012-2.985 9.1-.48 1.463c-1.212-.565-3.01-1.16-5.152-1.122h-.017c-2.149-.035-3.946.557-5.159 1.122l-.48-1.463c-.994-3.032-1.988-6.066-2.985-9.1L17.848 0l-5.23 19.244.3.115.3.114 4.688-17.255c.885 2.697 1.77 5.394 2.652 8.09l.71 2.16.33-.168c1.142-.575 2.976-1.257 5.2-1.216h.028c2.23-.038 4.052.641 5.193 1.216l.333.167.708-2.16c.883-2.695 1.767-5.392 2.653-8.09l4.689 17.256.3-.114.297-.115L35.771 0ZM12.45 19.856l-.588 2.166.324.027.323.027.54-1.99-.299-.115-.3-.115Zm28.716.002-.298.113-.3.116.54 1.989.324-.027.322-.026-.588-2.165Zm.757 2.784-.322.027-.324.027.547 2.01.333.015.333.014-.567-2.093Z" fill="#000" fill-opacity=".87"></path>
    <path d="M29.335 20.7a.674.674 0 0 1-.677-.672v-4.066c0-.371.303-.671.677-.671.375 0 .678.3.678.67v4.067c0 .37-.303.671-.678.671ZM24.681 19.989a.677.677 0 0 1-.746-.597l-.33-3.068c-.04-.368.23-.7.603-.74a.676.676 0 0 1 .746.598l.33 3.068c.04.37-.23.7-.603.739ZM16.442 21.048a.318.318 0 0 1-.41.18l-2.984-1.141-.3-.116-.3-.115-4.334-1.659a.314.314 0 0 1-.183-.409.32.32 0 0 1 .413-.18l4.272 1.636.3.115.3.113 3.045 1.167a.315.315 0 0 1 .181.409ZM15.827 22.667a.317.317 0 0 1-.317.29h-.027l-3.145-.261-.323-.027-.324-.027-4.667-.386a.315.315 0 1 1 .054-.629l4.782.395.324.027.323.027 3.03.25a.316.316 0 0 1 .29.341ZM15.838 24.843a.316.316 0 0 1-.304.328l-3.915.174-.335.016-.333.014-3.897.174H7.04a.316.316 0 0 1-.014-.632l4.099-.181.334-.015.333-.015 3.713-.165c.18-.009.325.127.333.302ZM45.5 18.197l-4.336 1.66-.298.114-.3.116-2.983 1.141a.321.321 0 0 1-.413-.18.316.316 0 0 1 .184-.409l3.045-1.166.3-.114.298-.115 4.274-1.636a.32.32 0 0 1 .413.18.317.317 0 0 1-.184.41ZM46.879 21.915a.317.317 0 0 1-.292.34l-4.668.388-.322.026-.323.027-3.146.26h-.027a.319.319 0 0 1-.317-.288.317.317 0 0 1 .291-.341l3.03-.251.323-.027.322-.025 4.784-.396a.315.315 0 0 1 .345.287ZM46.89 25.247a.318.318 0 0 1-.319.301h-.014l-3.897-.173-.331-.015-.335-.015-3.917-.174a.317.317 0 0 1-.304-.328.316.316 0 0 1 .333-.302l3.715.164.333.016.333.014 4.099.182a.316.316 0 0 1 .304.33Z" fill="#000" fill-opacity=".87"></path>
    <path d="M36.021 35.678a.315.315 0 0 1-.31-.391 4.374 4.374 0 0 0-.122-2.534.314.314 0 0 1 .198-.401.318.318 0 0 1 .405.196 4.997 4.997 0 0 1 .139 2.892.32.32 0 0 1-.31.238Z" fill="#000" fill-opacity=".87"></path>
    <path d="M38.176 35.269a.315.315 0 0 1-.292-.444c.169-.379.23-.762.183-1.141a2.466 2.466 0 0 0-.37-.996.313.313 0 0 1 .103-.434.32.32 0 0 1 .438.102c.255.407.41.83.462 1.252a2.76 2.76 0 0 1-.233 1.473.317.317 0 0 1-.291.188Z" fill="#000" fill-opacity=".87"></path>  
    <path d="M17.595 35.678a.319.319 0 0 1-.31-.24 4.99 4.99 0 0 1 .139-2.892.32.32 0 0 1 .405-.196.315.315 0 0 1 .197.401 4.373 4.373 0 0 0-.123 2.533.316.316 0 0 1-.232.383.26.26 0 0 1-.076.01Z" fill="#000" fill-opacity=".87"></path>   
    <path d="M15.44 35.269a.32.32 0 0 1-.292-.188 2.74 2.74 0 0 1-.232-1.473 3.08 3.08 0 0 1 .462-1.252.32.32 0 0 1 .438-.102c.15.091.196.285.103.434-.205.328-.33.664-.37.996-.047.379.014.762.182 1.141a.315.315 0 0 1-.291.444ZM11.569 31.567H.339c-.186 0-.339-.12-.339-.268 0-.148.153-.27.339-.27h11.23c.186 0 .339.122.339.27 0 .147-.153.268-.34.268ZM52.455 31.624H41.897a.318.318 0 0 1-.318-.316c0-.173.143-.315.318-.315h10.558c.175 0 .319.142.319.315a.317.317 0 0 1-.319.316ZM30.052 25.815c-.23.59-.76 1.23-1.434 1.326-.623.087-1.197-.243-1.61-.756-.04.11-.089.221-.153.333-.103.183-.66 1.09-1.587 1.09h-.026c-.882-.016-1.649-.814-1.783-1.857a.316.316 0 0 1 .277-.352.318.318 0 0 1 .356.273c.102.805.67 1.296 1.162 1.304h.012c.585 0 .989-.687 1.033-.765.22-.392.215-.793.175-1.056l-.04-.147c-.613.07-1.142-.142-1.24-.53-.11-.443.383-.945 1.102-1.121.72-.177 1.393.037 1.503.48.092.364-.225.768-.741.999.015.058.03.127.043.203.258.85.918 1.347 1.428 1.277.395-.057.766-.51.927-.926a1.67 1.67 0 0 0 .078-.903.318.318 0 0 1 .257-.368.32.32 0 0 1 .371.254c.054.297.08.751-.11 1.242Z" fill="#000" fill-opacity=".87"></path>
  </symbol>
  <symbol fill="none" xmlns="http://www.w3.org/2000/svg" viewBox="0 0 70 70" id="photo-cover">
    <circle cx="35" cy="35" r="35" fill="#fff"></circle>
    <path d="M34.952 70C15.63 70.002-.075 54.242 0 34.93.078 15.579 15.724-.034 35.005 0 54.359.036 69.944 15.593 70 34.937 70.057 54.304 54.368 70 34.952 70ZM11.244 57.555c12.905 13.766 34.916 13.51 47.47.01-.264-.307-.516-.634-.806-.926-1.307-1.314-2.855-2.302-4.527-3.047-2.185-.974-4.436-1.8-6.643-2.725-1.046-.44-2.091-.902-3.074-1.464-1.122-.639-1.849-1.6-1.881-2.971a146.288 146.288 0 0 0-.112-3.323 2.773 2.773 0 0 1 .61-1.915c1.703-2.205 2.59-4.709 2.607-7.503.002-.439.185-.705.516-.966.738-.585 1.393-1.274 1.591-2.227a28.13 28.13 0 0 0 .461-3.105c.08-.847-.012-1.675-1.09-1.764.15-1.28.35-2.462.42-3.65.141-2.426-.122-4.797-1.344-6.964-1.053-1.866-2.64-2.89-4.811-2.973-.288-.011-.583-.1-.858-.195-2.75-.945-5.591-1.234-8.422-.67-5.511 1.099-8.809 5.836-8.146 11.475.115.974.3 1.939.464 2.983-.756.04-1.2.475-1.186 1.195.04 2.14.079 4.304 1.972 5.814.474.378.594.853.643 1.411.068.801.16 1.604.288 2.398.299 1.864 1.386 3.353 2.361 4.899.242.383.438.866.456 1.31.048 1.226 0 2.456-.027 3.683-.027 1.231-.592 2.182-1.598 2.864-.47.318-.95.64-1.47.86a93.461 93.461 0 0 1-3.756 1.487c-2.61.983-5.194 2.016-7.514 3.603-.972.665-1.87 1.404-2.594 2.396Z" fill="#D0CFCF"></path>
  </symbol>
</svg>